<svg class="svg-pokemon" width="240" height="160" viewBox="0 0 240 160" xmlns="http://www.w3.org/2000/svg">
  <!-- Fundo preto -->
  <rect x="-1" y="0" width="244" height="160" fill="#8d1e16"/>

  <!-- Moldura vermelha -->
  <rect x="-2" y="0" width="244" height="160" fill="none" stroke="#211018" stroke-width="4"/>

  <!-- Área verde principal -->
  <rect x="0" y="8" width="244" height="144" fill="#43633c"/>

  <!-- Linhas horizontais -->
  <g stroke="#49755d" stroke-width="1">
   <line x1="0" y1="8" x2="240" y2="8"/>
    <line x1="0" y1="10" x2="240" y2="10"/>
    <line x1="0" y1="12" x2="240" y2="12"/>
    <line x1="0" y1="14" x2="240" y2="14"/>
    <line x1="0" y1="16" x2="240" y2="16"/>
    <line x1="0" y1="18" x2="240" y2="18"/>
    <line x1="0" y1="20" x2="240" y2="20"/>
    <line x1="0" y1="22" x2="240" y2="22"/>
    <line x1="0" y1="24" x2="240" y2="24"/>
    <line x1="0" y1="26" x2="240" y2="26"/>
    <line x1="0" y1="28" x2="240" y2="28"/>
    <line x1="0" y1="30" x2="240" y2="30"/>
    <line x1="0" y1="32" x2="240" y2="32"/>
    <line x1="0" y1="34" x2="240" y2="34"/>
    <line x1="0" y1="36" x2="240" y2="36"/>
    <line x1="0" y1="38" x2="240" y2="38"/>
    <line x1="0" y1="40" x2="240" y2="40"/>
    <line x1="0" y1="42" x2="240" y2="42"/>
    <line x1="0" y1="44" x2="240" y2="44"/>
    <line x1="0" y1="46" x2="240" y2="46"/>
    <line x1="0" y1="48" x2="240" y2="48"/>
    <line x1="0" y1="50" x2="240" y2="50"/>
    <line x1="0" y1="52" x2="240" y2="52"/>
    <line x1="0" y1="54" x2="240" y2="54"/>
    <line x1="0" y1="56" x2="240" y2="56"/>
    <line x1="0" y1="58" x2="240" y2="58"/>
    <line x1="0" y1="60" x2="240" y2="60"/>
    <line x1="0" y1="62" x2="240" y2="62"/>
    <line x1="0" y1="64" x2="240" y2="64"/>
    <line x1="0" y1="66" x2="240" y2="66"/>
    <line x1="0" y1="68" x2="240" y2="68"/>
    <line x1="0" y1="70" x2="240" y2="70"/>
    <line x1="0" y1="72" x2="240" y2="72"/>
    <line x1="0" y1="74" x2="240" y2="74"/>
    <line x1="0" y1="76" x2="240" y2="76"/>
    <line x1="0" y1="78" x2="240" y2="78"/>
    <line x1="0" y1="80" x2="240" y2="80"/>
    <line x1="0" y1="82" x2="240" y2="82"/>
    <line x1="0" y1="84" x2="240" y2="84"/>
    <line x1="0" y1="86" x2="240" y2="86"/>
    <line x1="0" y1="88" x2="240" y2="88"/>
    <line x1="0" y1="90" x2="240" y2="90"/>
    <line x1="0" y1="92" x2="240" y2="92"/>
    <line x1="0" y1="94" x2="240" y2="94"/>
    <line x1="0" y1="96" x2="240" y2="96"/>
    <line x1="0" y1="98" x2="240" y2="98"/>
    <line x1="0" y1="100" x2="240" y2="100"/>
    <line x1="0" y1="102" x2="240" y2="102"/>
    <line x1="0" y1="104" x2="240" y2="104"/>
    <line x1="0" y1="106" x2="240" y2="106"/>
    <line x1="0" y1="108" x2="240" y2="108"/>
    <line x1="0" y1="110" x2="240" y2="110"/>
    <line x1="0" y1="112" x2="240" y2="112"/>
    <line x1="0" y1="114" x2="240" y2="114"/>
    <line x1="0" y1="116" x2="240" y2="116"/>
    <line x1="0" y1="118" x2="240" y2="118"/>
    <line x1="0" y1="120" x2="240" y2="120"/>
    <line x1="0" y1="122" x2="240" y2="122"/>
    <line x1="0" y1="124" x2="240" y2="124"/>
    <line x1="0" y1="126" x2="240" y2="126"/>
    <line x1="0" y1="128" x2="240" y2="128"/>
    <line x1="0" y1="130" x2="240" y2="130"/>
    <line x1="0" y1="132" x2="240" y2="132"/>
    <line x1="0" y1="134" x2="240" y2="134"/>
    <line x1="0" y1="136" x2="240" y2="136"/>
    <line x1="0" y1="138" x2="240" y2="138"/>
    <line x1="0" y1="140" x2="240" y2="140"/>
    <line x1="0" y1="142" x2="240" y2="142"/>
    <line x1="0" y1="144" x2="240" y2="144"/>
    <line x1="0" y1="146" x2="240" y2="146"/>
    <line x1="0" y1="148" x2="240" y2="148"/>
    <line x1="0" y1="150" x2="240" y2="150"/>
    <line x1="0" y1="152" x2="240" y2="152"/>
  </g>

</svg>